<svg width="960" height="460" viewBox="0 0 960 460" fill="none" xmlns="http://www.w3.org/2000/svg" role="img" aria-labelledby="title desc">
  <title id="title">Clawd Runner minigame preview</title>
  <desc id="desc">A colorful terminal preview of Clawd Runner with Clawd dodging cacti and flying bugs.</desc>
  <defs>
    <linearGradient id="screen" x1="28" y1="40" x2="932" y2="424" gradientUnits="userSpaceOnUse">
      <stop stop-color="#0B1220"/>
      <stop offset="0.54" stop-color="#111D31"/>
      <stop offset="1" stop-color="#07111F"/>
    </linearGradient>
    <linearGradient id="skyline" x1="64" y1="128" x2="896" y2="318" gradientUnits="userSpaceOnUse">
      <stop stop-color="#172554"/>
      <stop offset="0.55" stop-color="#174E63"/>
      <stop offset="1" stop-color="#3B2F56"/>
    </linearGradient>
  </defs>
  <style>
    .mono { font-family: ui-monospace, SFMono-Regular, Menlo, Consolas, "Liberation Mono", monospace; letter-spacing: 0; }
    .hud { font: 800 22px ui-monospace, SFMono-Regular, Menlo, Consolas, monospace; letter-spacing: 0; }
    .help { font: 700 18px ui-monospace, SFMono-Regular, Menlo, Consolas, monospace; letter-spacing: 0; }
  </style>

  <rect width="960" height="460" rx="26" fill="#0F172A"/>
  <rect x="28" y="28" width="904" height="396" rx="18" fill="url(#screen)" stroke="#334155" stroke-width="2"/>
  <rect x="28" y="28" width="904" height="48" rx="18" fill="#172033"/>
  <rect x="28" y="58" width="904" height="18" fill="#172033"/>
  <circle cx="60" cy="52" r="7" fill="#FF6B6B"/>
  <circle cx="84" cy="52" r="7" fill="#FFD166"/>
  <circle cx="108" cy="52" r="7" fill="#3DDC97"/>
  <text class="mono" x="480" y="59" text-anchor="middle" fill="#94A3B8" font-size="17">claude-run</text>

  <rect x="64" y="96" width="832" height="284" rx="10" fill="#0B1220" stroke="#1E293B"/>
  <path d="M64 266C131 237 192 274 258 250C343 219 410 248 486 221C576 188 665 242 746 210C805 187 849 190 896 170V380H64V266Z" fill="url(#skyline)" opacity="0.86"/>
  <path d="M64 294C143 279 202 302 279 282C358 262 431 296 510 268C593 240 666 288 750 263C811 245 852 250 896 232V380H64V294Z" fill="#123B4E" opacity="0.88"/>

  <g class="hud">
    <text x="88" y="126" fill="#F28A54">CLAWD RUNNER</text>
    <text x="682" y="126" fill="#F7C948">HI 00536</text>
    <text x="807" y="126" fill="#E2E8F0">00291</text>
  </g>

  <g class="mono" font-size="26" font-weight="800">
    <text x="205" y="169" fill="#64748B">░▒░</text>
    <text x="718" y="169" fill="#94A3B8">░░░</text>
    <text x="586" y="177" fill="#F7C948">▄▄</text>
    <text x="582" y="205" fill="#F7C948">████</text>
    <text x="794" y="212" fill="#FF6DAE">\o/</text>
    <text x="670" y="247" fill="#B779FF">-×-</text>
    <text x="821" y="279" fill="#35D0BA">╲▂█▂╱</text>
  </g>

  <g transform="translate(124 230)">
    <rect x="22" y="0" width="108" height="16" fill="#F79A57"/>
    <rect x="10" y="16" width="132" height="22" fill="#F28A54"/>
    <rect x="0" y="38" width="154" height="28" fill="#E77945"/>
    <rect x="10" y="66" width="132" height="22" fill="#F28A54"/>
    <rect x="22" y="88" width="24" height="20" fill="#D95F37"/>
    <rect x="64" y="88" width="22" height="20" fill="#D95F37"/>
    <rect x="108" y="88" width="24" height="20" fill="#D95F37"/>
    <rect x="32" y="24" width="16" height="17" fill="#0B1220"/>
    <rect x="108" y="24" width="16" height="17" fill="#0B1220"/>
    <rect x="-18" y="45" width="18" height="20" fill="#F7C948"/>
    <rect x="154" y="45" width="18" height="20" fill="#F7C948"/>
  </g>

  <g fill="#7CCB6F">
    <rect x="476" y="284" width="18" height="45"/>
    <rect x="494" y="262" width="18" height="67"/>
    <rect x="512" y="284" width="18" height="45"/>
    <rect x="724" y="270" width="17" height="59"/>
    <rect x="741" y="250" width="17" height="79"/>
  </g>
  <g fill="#39D0BA">
    <rect x="558" y="299" width="16" height="30"/>
    <rect x="574" y="286" width="16" height="43"/>
    <rect x="590" y="299" width="16" height="30"/>
  </g>

  <g class="mono" font-size="24">
    <text x="96" y="330" fill="#B08968">·</text>
    <text x="110" y="323" fill="#C7A27A">∙</text>
    <text x="278" y="330" fill="#D4A373">•</text>
    <text x="307" y="325" fill="#F7C948">✦</text>
    <text x="790" y="151" fill="#F7C948">✦</text>
    <text x="843" y="183" fill="#E879F9">*</text>
    <text x="136" y="184" fill="#38BDF8">·</text>
  </g>

  <text class="mono" x="82" y="337" fill="#94A3B8" font-size="24">▔▔▔•▔▔·▔▔▔▔▔▔▔▔╌▔▔▔▔▔▔▔▔▔▔▔▔▔▔▔▔╌▔▔▔▔▔▔▔▔▔▔▔▔▔▔▔▔╌▔▔▔▔▔</text>
  <rect x="64" y="349" width="832" height="31" fill="#0B1220" opacity="0.56"/>
  <text class="help" x="93" y="370" fill="#CBD5E1">SPACE</text>
  <text class="help" x="160" y="370" fill="#94A3B8">jump</text>
  <text class="help" x="249" y="370" fill="#35D0BA">↓/S</text>
  <text class="help" x="296" y="370" fill="#94A3B8">duck·dive</text>
  <text class="help" x="434" y="370" fill="#F7C948">P</text>
  <text class="help" x="459" y="370" fill="#94A3B8">pause</text>
  <text class="help" x="552" y="370" fill="#FF6DAE">R</text>
  <text class="help" x="578" y="370" fill="#94A3B8">restart</text>
  <text class="help" x="694" y="370" fill="#B779FF">Q</text>
  <text class="help" x="720" y="370" fill="#94A3B8">quit</text>
</svg>
